<svg xmlns="http://www.w3.org/2000/svg" xmlns:xlink="http://www.w3.org/1999/xlink" version="1.1" width="256" height="256" viewBox="0 0 256 256" xml:space="preserve">
<desc>Created with Fabric.js 1.7.22</desc>
<defs>
</defs>
<g transform="translate(128 128) scale(0.72 0.72)" style="">
	<g style="stroke: none; stroke-width: 0; stroke-dasharray: none; stroke-linecap: butt; stroke-linejoin: miter; stroke-miterlimit: 10; fill: none; fill-rule: nonzero; opacity: 1;" transform="translate(-175.05 -175.05000000000004) scale(3.89 3.89)" >
	<path d="M 5 90 c -1.28 0 -2.559 -0.488 -3.536 -1.465 c -1.953 -1.952 -1.953 -5.118 0 -7.07 l 80 -80 c 1.951 -1.952 5.119 -1.952 7.07 0 c 1.953 1.953 1.953 5.119 0 7.071 l -80 80 C 7.559 89.512 6.28 90 5 90 z" style="stroke: none; stroke-width: 1; stroke-dasharray: none; stroke-linecap: butt; stroke-linejoin: miter; stroke-miterlimit: 10; fill: rgb(0,0,0); fill-rule: nonzero; opacity: 1;" transform=" matrix(1 0 0 1 0 0) " stroke-linecap="round" />
	<path d="M 85 90 c -1.279 0 -2.56 -0.488 -3.535 -1.465 l -80 -80 c -1.953 -1.953 -1.953 -5.119 0 -7.071 s 5.118 -1.952 7.071 0 l 80 80 c 1.953 1.952 1.953 5.118 0 7.07 C 87.56 89.512 86.279 90 85 90 z" style="stroke: none; stroke-width: 1; stroke-dasharray: none; stroke-linecap: butt; stroke-linejoin: miter; stroke-miterlimit: 10; fill: rgb(0,0,0); fill-rule: nonzero; opacity: 1;" transform=" matrix(1 0 0 1 0 0) " stroke-linecap="round" />
</g>
</g>
</svg>